<?xml version="1.0" encoding="UTF-8"?>
<svg xmlns="http://www.w3.org/2000/svg" version="1.1" viewBox="0 0 200 200">
  <!-- Generator: Adobe Illustrator 29.3.1, SVG Export Plug-In . SVG Version: 2.1.0 Build 151)  -->
  <defs>
    <style>
      .st0 {
        fill: #a2cce7;
      }

      .st1, .st2 {
        fill: #fff7d4;
      }

      .st1, .st2, .st3, .st4, .st5, .st6, .st7, .st8, .st9, .st10, .st11, .st12, .st13, .st14, .st15, .st16, .st17 {
        stroke-miterlimit: 10;
      }

      .st1, .st2, .st3, .st4, .st6, .st7, .st8, .st10, .st11, .st12, .st13, .st14, .st15, .st16, .st17 {
        stroke-width: 1.9px;
      }

      .st1, .st2, .st4, .st18, .st19, .st5, .st10, .st12, .st13, .st15, .st17 {
        stroke: #7f0003;
      }

      .st1, .st3, .st8, .st10, .st12, .st15, .st16 {
        opacity: .97;
      }

      .st20 {
        stroke: #a4c7f4;
      }

      .st20, .st21, .st22, .st23, .st24, .st4, .st18, .st19, .st25, .st5, .st9, .st11, .st12, .st13, .st14, .st16 {
        fill: none;
      }

      .st20, .st21, .st22, .st23, .st24, .st18, .st19, .st25 {
        stroke-linejoin: round;
        stroke-width: 1.14px;
      }

      .st20, .st22, .st23, .st24, .st4, .st18, .st25, .st5, .st9, .st14 {
        stroke-linecap: square;
      }

      .st21, .st3, .st24, .st6, .st7, .st8, .st9, .st11, .st14, .st16 {
        stroke: #1e6fd9;
      }

      .st21, .st19 {
        stroke-linecap: round;
      }

      .st22 {
        stroke: #bf5e00;
      }

      .st23 {
        stroke: #6ba0e6;
      }

      .st3, .st6 {
        fill: #f8fafe;
      }

      .st26 {
        fill: #7f0003;
      }

      .st27, .st28 {
        fill: #fff;
      }

      .st28, .st10, .st29 {
        display: none;
      }

      .st25 {
        stroke: #bf8600;
      }

      .st5, .st9 {
        stroke-width: 1.52px;
      }

      .st30 {
        fill: #1e6fd9;
      }

      .st31 {
        fill: #94bdf2;
      }

      .st32 {
        fill: #dbff6a;
      }

      .st7, .st8 {
        fill: #5191d6;
      }

      .st33 {
        fill: #947900;
      }

      .st10 {
        fill-opacity: 0;
      }

      .st34 {
        fill: #d2edfc;
      }

      .st35 {
        fill: #8a9400;
      }

      .st15 {
        fill: #e74c1b;
      }

      .st17 {
        fill: #e84e1b;
      }
    </style>
  </defs>
  <g id="Capa_3" class="st29">
    <path class="st27" d="M74.09,166.76l-7.96-7.91-13.74-16.46c-10.41-1.26-14.62-8.22-14.42-19.21l11.05-40.09c-11.75-14.01-12.09-35.24-9.19-58.01,0,0,2.9,31.93,25.43,39.73s18.07-11.71,18.07-11.71l.75-29.67c5.28,33.32,36.29,57.63,37.04,55.83s17.8,24.04,24.59,41.1c-2.81,16.27-10.48,24.01-23,23.2-15.35,12.49-33.62,29.12-48.61,23.19Z"/>
    <path class="st13" d="M50.53,85.53c-12.19-16.09-16.2-38.08-10.58-57.56,1.31,14.67,10.51,28.41,23.58,35.2"/>
    <path class="st13" d="M93.91,79.41c-10.54-16.5-13.91-37.41-9.99-55.98,5.12,22.5,19.46,42.76,37.88,56.63v3.04"/>
    <g>
      <path class="st32" d="M61.24,117.48c-.8-1.99-1.5-3.17-4.48-3.17-.39,0-.83.02-1.31.06.79-3.97.73-4.31-1.09-5.93-.24-.21-.51-.46-.83-.75,2.64-1.45,3.77-2.27,2.65-5.58h.04c4.09,0,9.65,4.97,12.69,7.72,1.06,2.4-.13,6.23-.82,6.82-1.19-.86-2.27-1.28-3.3-1.28-1.33,0-2.5.69-3.57,2.12Z"/>
      <path class="st33" d="M56.97,102.73c3.78.55,8.83,5.05,11.47,7.43.73,1.83.08,4.61-.48,5.69-1.11-.71-2.14-1.06-3.15-1.06-1.24,0-2.39.54-3.41,1.62-.76-1.61-1.78-2.67-4.64-2.67-.19,0-.4,0-.61.01.64-3.36.52-4.02-1.41-5.74-.08-.07-.16-.14-.24-.22,2.18-1.28,3.17-2.37,2.48-5.06M56.23,101.54c-.28,0-.56.02-.83.07,1.46,3.73.47,4.15-2.81,5.95,3.05,3.05,3.29,1.77,2.15,7.45.79-.08,1.45-.13,2.02-.13,3.04,0,3.31,1.22,4.35,3.82,1.11-1.86,2.32-2.77,3.7-2.77.94,0,1.96.42,3.08,1.26.06.05.13.07.2.07,1.04,0,2.67-4.9,1.3-7.78-3.33-3-8.9-7.94-13.16-7.94h0Z"/>
    </g>
    <g>
      <path class="st32" d="M100.35,118.45c-.26-.41-.48-.78-.69-1.11-1.22-1.99-1.72-2.81-3.5-2.81-.6,0-1.35.09-2.37.22.99-3.52.4-4.51-1.26-6.55-.17-.21-.36-.44-.55-.69,2.05-1,3.67-1.79,4.01-3.2.14-.57.04-1.18-.3-1.85,3.19.04,8.81,2.57,15.87,7.13h0c-.43.29-1.1.87-2.08,2.16-1.01,1.33-.81,3.69-.67,5.26,0,.06.01.12.02.18-.96-.54-1.99-.81-3.06-.81-1.73,0-3.55.7-5.43,2.07Z"/>
      <path class="st33" d="M96.54,103.1c3.08.41,7.99,2.69,14.06,6.55-.42.38-.93.93-1.56,1.76-.97,1.28-.96,3.26-.85,4.84-.77-.3-1.58-.44-2.41-.44-1.7,0-3.46.61-5.26,1.83-.13-.21-.25-.41-.36-.59-1.26-2.05-1.89-3.08-3.99-3.08-.45,0-.97.05-1.61.12.75-3.19.01-4.28-1.58-6.24-.03-.04-.07-.08-.1-.13,1.82-.9,3.31-1.77,3.68-3.27.11-.44.1-.88,0-1.35M95.61,101.89c-.32,0-.62.02-.91.07,2.12,2.81-.42,3.78-3.6,5.34,2.33,3.09,3.44,3.21,1.9,8.12,1.47-.18,2.45-.32,3.16-.32,1.81,0,1.92.89,4.04,4.17,1.88-1.49,3.77-2.33,5.58-2.33,1.23,0,2.41.39,3.52,1.22.02.02.04.03.06.03.39,0-.75-4.35.58-6.09,2.52-3.31,2.71-1.54,2.06-2.9-4.11-2.66-11.86-7.31-16.4-7.31h0Z"/>
    </g>
    <path class="st5" d="M83.95,108.12s4.56-14.28,28.42,1.21"/>
    <path class="st5" d="M47.58,106.56s2.19-12.86,21.51,2.77"/>
    <path class="st4" d="M136.08,112.1c16.17-6.57,11.59,33.35-13.54,31.47"/>
    <g>
      <path class="st27" d="M62.6,112.65c-.44,0-.82-.3-.92-.73l-.71-3.13c-.11-.5.2-1.01.71-1.12l1.03-.23s.17-.02.21-.02c.44,0,.82.3.92.73l.71,3.14c.11.51-.21,1.01-.71,1.12l-1.03.23s-.17.02-.21.02Z"/>
      <path class="st26" d="M62.92,107.98c.17,0,.32.12.36.29l.71,3.14c.04.2-.08.4-.28.44l-1.03.23s-.05,0-.08,0c-.17,0-.32-.12-.36-.29l-.71-3.14c-.04-.2.08-.4.28-.44l1.03-.23s.05,0,.08,0M62.92,106.84c-.11,0-.22.01-.33.04l-1.03.23c-.81.18-1.32.99-1.14,1.8l.71,3.14c.16.69.76,1.18,1.47,1.18.11,0,.22-.01.33-.04l1.03-.23c.81-.18,1.32-.99,1.14-1.8l-.71-3.14c-.16-.69-.76-1.18-1.47-1.18h0Z"/>
    </g>
    <g>
      <path class="st27" d="M101.8,112.84c-.44,0-.82-.3-.92-.73l-.71-3.14c-.11-.5.2-1.01.71-1.12l1.03-.23s.16-.02.21-.02c.44,0,.82.3.92.73l.71,3.14c.06.24.01.5-.12.71-.13.21-.34.36-.59.41l-1.03.23s-.17.02-.21.02Z"/>
      <path class="st26" d="M102.12,108.17c.17,0,.32.12.36.29l.71,3.14c.04.2-.08.4-.28.44l-1.03.23s-.05,0-.08,0c-.17,0-.32-.12-.36-.29l-.71-3.14c-.04-.2.08-.4.28-.44l1.03-.23s.05,0,.08,0M102.12,107.03c-.11,0-.22.01-.33.04l-1.03.23c-.81.18-1.32.99-1.14,1.8l.71,3.14c.16.69.76,1.18,1.47,1.18.11,0,.22-.01.33-.04l1.03-.23c.81-.18,1.32-.99,1.14-1.8l-.71-3.14c-.16-.69-.76-1.18-1.47-1.18h0Z"/>
    </g>
    <path class="st19" d="M85.93,116.71s10.44,4.37,18.22,3.55c1.88-.2,7.23-2.82,7.23-2.82"/>
    <path class="st19" d="M48.87,115.33c1.58,1.39,2.44,2.77,4.69,4.06,4.85.36,11.03-.31,15.28-2.67"/>
    <path class="st18" d="M67.22,128.43l3.08,4.43"/>
    <path class="st17" d="M40.19,67.56c-8.86,7.08-15.8,16.53-19.91,27.09,4.77-2.31,9.54-4.62,14.3-6.94-3.99,7.53-5.04,16.57-2.88,24.82s7.51,15.61,14.83,19.6l-1.47-6.09c1.54.98,1.67,1.22,3.18,1.78-1.21-5.01,1.48-12.28,1.48-15.19-3.23-8.77-3.25-19.26.09-27.49-3.19-5.97-6.38-11.94-9.41-18-.02-.05-.05-.1-.22.4Z"/>
    <path class="st17" d="M114.81,150.23c-.76,9.76-2.58,18.94-10.67,24.44,7.65,1.08,10.21-.27,15.67-4.61.82,4.22,1.94,11.51,2.77,15.73,4.33-5.69,7.82-18.77,7.01-25.88,4.2,2.28,8.01,7.87,12.21,10.15-4.49-7.86-6.43-20.51-2.71-32.86-2.96,4.62-11.37,6.97-16.53,6.37l-7.74,6.66Z"/>
    <path class="st1" d="M54.66,146.87c-2.86,7.75-8.79,13.61-16.85,15.45,4.37,2.81,9.88,3.81,14.96,2.71-3.1,8.73,2.5,17.91,9.99,23.51-.42-3.79.42-12.37,0-16.17,6.17,6.17,8.16,7.53,14.47,9.43-3.53-3.91-4.13-10.18-3.3-15.04"/>
    <path class="st13" d="M53.18,142.45c-9.04-.22-16.85-9.27-15.74-18.24"/>
    <path class="st13" d="M55.91,58.05c8.28-4.41,17.87-6.32,27.2-5.44"/>
    <path class="st13" d="M97.04,53.11c21.4,0,31.57,6.79,44.37,21.06,8.7,9.7,9.72,39.09-4.45,51.73"/>
    <path class="st17" d="M111.13,54.31c29.21,8.12,43.97,25.32,47.84,47.97-2.55-2.41-5.1-4.81-7.65-7.22,2.35,9.83-.02,19.79-5.94,27.98"/>
    <path class="st25" d="M86.19,122.29l-1.97,1.81"/>
    <path class="st25" d="M92.01,123.34l-.38,3.23"/>
    <path class="st25" d="M50.66,121.63l-1.82,1.71"/>
    <path class="st25" d="M54.51,123.59l-.39,2.16"/>
    <path class="st25" d="M82.53,106.07c1.76-3.02,5.09-5.05,8.58-5.24"/>
    <path class="st25" d="M60.29,101.28c9.68,1.69,9.91,6.52,9.91,6.52"/>
    <path class="st18" d="M48.41,104.25l-2.41-1.35"/>
    <path class="st18" d="M54.67,101.28l-1.76-2.21"/>
    <path class="st18" d="M64.17,104.69l.7-1.37"/>
    <path class="st13" d="M53.57,77.5c-6.67,9.2-7.51,24.76-3.66,35.65-2.85,18.58-.6,32.76,16.07,45.7,2.29,5.39,7.48,9.43,13.42,9.73,16.57-4.07,31.84-13.27,43.18-26.01"/>
    <path class="st18" d="M86.46,103.91l-3.12-1.94"/>
    <path class="st18" d="M93.21,101.53l-.5-2.9"/>
    <path class="st18" d="M102.82,103.73l1.4-1.84"/>
    <path class="st13" d="M65.49,62.86c-2.72,5.04-5.43,10.09-8.15,15.13,2.87-1.34,5.74-2.69,8.61-4.03-3.75,7.81,1.27,18.46,9.68,20.54-.06-3.83-.13-7.67-.19-11.5,5.92,6.7,15.72,9.69,24.36,7.44-5.08-3.34-8.51-9.06-9.08-15.11"/>
    <path class="st13" d="M120.96,79.26c5.21,21.66-3.24,46-20.75,59.78,9.5-.73,18.66-5.13,25.18-12.07-.97,4.61-1.95,9.22-2.92,13.83,5.08-5.26,10.15-10.52,15.23-15.78"/>
    <g>
      <path class="st27" d="M62.6,112.65c-.44,0-.82-.3-.92-.73l-.71-3.13c-.11-.5.2-1.01.71-1.12l1.03-.23s.17-.02.21-.02c.44,0,.82.3.92.73l.71,3.14c.11.51-.21,1.01-.71,1.12l-1.03.23s-.17.02-.21.02Z"/>
      <path class="st35" d="M62.92,107.98c.17,0,.32.12.36.29l.71,3.14c.04.2-.08.4-.28.44l-1.03.23s-.05,0-.08,0c-.17,0-.32-.12-.36-.29l-.71-3.14c-.04-.2.08-.4.28-.44l1.03-.23s.05,0,.08,0M62.92,106.84c-.11,0-.22.01-.33.04l-1.03.23c-.81.18-1.32.99-1.14,1.8l.71,3.14c.16.69.76,1.18,1.47,1.18.11,0,.22-.01.33-.04l1.03-.23c.81-.18,1.32-.99,1.14-1.8l-.71-3.14c-.16-.69-.76-1.18-1.47-1.18h0Z"/>
    </g>
    <g>
      <path class="st27" d="M101.8,112.84c-.44,0-.82-.3-.92-.73l-.71-3.14c-.11-.5.2-1.01.71-1.12l1.03-.23s.16-.02.21-.02c.44,0,.82.3.92.73l.71,3.14c.06.24.01.5-.12.71-.13.21-.34.36-.59.41l-1.03.23s-.17.02-.21.02Z"/>
      <path class="st35" d="M102.12,108.17c.17,0,.32.12.36.29l.71,3.14c.04.2-.08.4-.28.44l-1.03.23s-.05,0-.08,0c-.17,0-.32-.12-.36-.29l-.71-3.14c-.04-.2.08-.4.28-.44l1.03-.23s.05,0,.08,0M102.12,107.03c-.11,0-.22.01-.33.04l-1.03.23c-.81.18-1.32.99-1.14,1.8l.71,3.14c.16.69.76,1.18,1.47,1.18.11,0,.22-.01.33-.04l1.03-.23c.81-.18,1.32-.99,1.14-1.8l-.71-3.14c-.16-.69-.76-1.18-1.47-1.18h0Z"/>
    </g>
    <path class="st22" d="M85.93,116.71s10.44,4.37,18.22,3.55c1.88-.2,7.23-2.82,7.23-2.82"/>
    <path class="st22" d="M48.87,115.33c1.58,1.39,2.44,2.77,4.69,4.06,4.85.36,11.03-.31,15.28-2.67"/>
    <path class="st18" d="M67.22,128.43l3.08,4.43"/>
    <path class="st12" d="M50.53,85.53c-12.19-16.09-16.2-38.08-10.58-57.56,1.31,14.67,10.51,28.41,23.58,35.2"/>
    <path class="st12" d="M93.91,79.41c-10.54-16.5-13.91-37.41-9.99-55.98,5.12,22.5,19.46,42.76,37.88,56.63v3.04"/>
    <path class="st15" d="M90.72,75.32c2.45,5.64,4.01,11.77,9.08,15.11-8.65,2.25-18.45-.74-24.36-7.44.06,3.83.13,7.67.19,11.5-8.41-2.08-13.43-12.73-9.68-20.54-2.87,1.34-5.74,2.69-8.61,4.03,2.72-5.04,5.43-10.09,8.84-14.4-4.24.08-8.41-2.54-10.19-6.39,8.99-1.79,18.06-3.15,27.18-4.09,2.39,7.78,4.68,15.58,7.56,22.21Z"/>
    <path class="st10" d="M114.81,62.35"/>
    <path class="st2" d="M120.96,79.26c5.21,21.66-3.24,46-20.75,59.78,9.5-.73,18.66-5.13,25.18-12.07-.97,4.61-1.95,9.22-2.92,13.83,5.08-5.26,10.15-10.52,13.72-14.81,11.75-13.05,14.26-33.6,6-49.09-8.26-15.49-26.73-24.85-44.11-22.36l22.89,24.73Z"/>
  </g>
  <g id="Capa_2">
    <path class="st28" d="M74.31,166.59l-7.96-7.91-13.74-16.46c-10.41-1.26-14.62-8.22-14.42-19.21l11.05-40.09c-11.75-14.01-12.09-35.24-9.19-58.01,0,0,2.9,31.93,25.43,39.73s18.07-11.71,18.07-11.71l.75-29.67c5.28,33.32,36.29,57.63,37.04,55.83s17.8,24.04,24.59,41.1c-2.81,16.27-10.48,24.01-23,23.2-15.35,12.49-33.62,29.12-48.61,23.19Z"/>
    <path class="st27" d="M73.58,166.59l-7.96-7.91-13.74-16.46c-10.41-1.26-14.62-8.22-14.42-19.21l12.51-40.09c-17.16-18.24-9.8-55.13-9.8-55.13,4.17,14.61,7.25,27.3,23.01,35.2l19.63-10.07.75-29.67c5.92,26.95,36.29,57.63,37.04,55.83s17.8,24.04,24.59,41.1c-2.81,16.27-10.48,24.01-23,23.2-15.35,12.49-33.62,29.12-48.61,23.19Z"/>
    <path class="st11" d="M50.75,85.37c-12.19-16.09-16.2-38.08-10.58-57.56,1.31,14.67,10.51,28.41,23.58,35.2"/>
    <path class="st11" d="M94.13,79.25c-10.54-16.5-13.91-37.41-9.99-55.98,5.12,22.5,19.46,42.76,37.88,56.63v3.04"/>
    <g>
      <path class="st34" d="M61.46,117.31c-.8-1.99-1.5-3.17-4.48-3.17-.39,0-.83.02-1.32.06.79-3.97.73-4.31-1.09-5.93-.24-.21-.51-.46-.83-.75,2.64-1.45,3.77-2.27,2.65-5.58h.04c4.09,0,9.65,4.97,12.69,7.72,1.06,2.4-.13,6.23-.81,6.82-1.19-.86-2.27-1.28-3.3-1.28-1.33,0-2.5.69-3.57,2.12Z"/>
      <path class="st31" d="M57.19,102.57c3.78.55,8.83,5.05,11.47,7.43.73,1.83.08,4.61-.48,5.69-1.11-.71-2.14-1.06-3.15-1.06-1.24,0-2.39.54-3.41,1.62-.76-1.61-1.78-2.67-4.64-2.67-.19,0-.4,0-.61.01.64-3.36.52-4.02-1.41-5.74-.08-.07-.16-.14-.24-.22,2.18-1.28,3.17-2.37,2.48-5.06M56.45,101.37c-.28,0-.56.02-.83.07,1.46,3.73.47,4.15-2.81,5.95,3.05,3.05,3.29,1.77,2.15,7.45.79-.08,1.45-.13,2.02-.13,3.04,0,3.31,1.22,4.35,3.82,1.11-1.86,2.32-2.77,3.7-2.77.94,0,1.96.42,3.08,1.26.06.05.13.07.2.07,1.04,0,2.67-4.9,1.3-7.78-3.33-3-8.9-7.94-13.16-7.94h0Z"/>
    </g>
    <g>
      <path class="st34" d="M100.57,118.28c-.26-.41-.48-.78-.69-1.11-1.22-1.99-1.72-2.81-3.5-2.81-.6,0-1.35.09-2.37.22.99-3.52.4-4.51-1.27-6.55-.17-.21-.36-.44-.55-.69,2.05-1,3.67-1.79,4.01-3.2.14-.57.04-1.18-.3-1.85,3.18.04,8.81,2.57,15.87,7.13h0c-.43.29-1.1.87-2.08,2.16-1.01,1.33-.81,3.69-.67,5.26,0,.06,0,.12.01.18-.96-.54-1.98-.81-3.06-.81-1.73,0-3.56.7-5.43,2.07Z"/>
      <path class="st31" d="M96.76,102.93c3.08.41,7.99,2.69,14.06,6.55-.42.38-.93.93-1.56,1.76-.97,1.28-.96,3.26-.85,4.84-.77-.3-1.58-.44-2.41-.44-1.7,0-3.46.61-5.26,1.83-.13-.21-.25-.41-.36-.59-1.26-2.05-1.89-3.08-3.99-3.08-.45,0-.97.05-1.61.12.75-3.19.01-4.28-1.58-6.24-.03-.04-.07-.08-.1-.13,1.82-.9,3.31-1.77,3.68-3.27.11-.44.1-.88,0-1.35M95.83,101.73c-.32,0-.62.02-.91.07,2.12,2.81-.42,3.78-3.6,5.34,2.33,3.09,3.44,3.21,1.9,8.12,1.47-.18,2.45-.32,3.16-.32,1.81,0,1.92.89,4.04,4.17,1.88-1.49,3.77-2.33,5.58-2.33,1.23,0,2.41.39,3.52,1.22.02.02.04.03.06.03.39,0-.75-4.35.58-6.09,2.52-3.31,2.71-1.54,2.06-2.9-4.11-2.66-11.86-7.31-16.4-7.31h0Z"/>
    </g>
    <path class="st9" d="M84.17,107.95s4.56-14.28,28.42,1.21"/>
    <path class="st9" d="M47.8,106.39s2.19-12.86,21.51,2.77"/>
    <path class="st14" d="M136.3,111.93c16.17-6.57,11.59,33.35-13.54,31.47"/>
    <g>
      <path class="st27" d="M62.82,112.49c-.44,0-.82-.3-.92-.73l-.71-3.14c-.11-.51.21-1.01.71-1.12l1.03-.23s.17-.02.21-.02c.44,0,.82.3.92.73l.71,3.13c.11.5-.2,1.01-.71,1.12l-1.03.23s-.17.02-.21.02Z"/>
      <path class="st30" d="M63.14,107.81c.17,0,.32.12.36.29l.71,3.14c.04.2-.08.4-.28.44l-1.03.23s-.05,0-.08,0c-.17,0-.32-.12-.36-.29l-.71-3.14c-.04-.2.08-.4.28-.44l1.03-.23s.05,0,.08,0M63.14,106.67c-.11,0-.22.01-.33.04l-1.03.23c-.39.09-.73.33-.94.67-.22.34-.29.74-.2,1.14l.71,3.14c.16.69.76,1.18,1.47,1.18.11,0,.22-.01.33-.04l1.03-.23c.81-.18,1.32-.99,1.14-1.8l-.71-3.14c-.16-.69-.76-1.18-1.47-1.18h0Z"/>
    </g>
    <g>
      <path class="st27" d="M102.02,112.68c-.44,0-.82-.3-.92-.73l-.71-3.14c-.11-.51.21-1.01.71-1.12l1.03-.23s.16-.02.21-.02c.44,0,.82.3.92.73l.71,3.14c.11.51-.21,1.01-.71,1.12l-1.03.23s-.16.02-.21.02Z"/>
      <path class="st30" d="M102.34,108c.17,0,.32.12.36.29l.71,3.14c.04.2-.08.4-.28.44l-1.03.23s-.05,0-.08,0c-.17,0-.32-.12-.36-.29l-.71-3.14c-.04-.2.08-.4.28-.44l1.03-.23s.05,0,.08,0M102.34,106.86c-.11,0-.22.01-.33.04l-1.03.23c-.81.18-1.32.99-1.14,1.8l.71,3.14c.16.69.76,1.18,1.47,1.18.11,0,.22-.01.33-.04l1.03-.23c.39-.09.73-.33.94-.67.22-.34.29-.74.2-1.14l-.71-3.14c-.16-.69-.76-1.18-1.47-1.18h0Z"/>
    </g>
    <path class="st21" d="M86.15,116.55s10.44,4.37,18.22,3.55c1.88-.2,7.23-2.82,7.23-2.82"/>
    <path class="st21" d="M49.09,115.17c1.58,1.39,2.44,2.77,4.69,4.06,4.85.36,11.03-.31,15.28-2.67"/>
    <path class="st24" d="M67.44,128.27l3.08,4.43"/>
    <path class="st7" d="M40.41,67.39c-8.86,7.08-15.8,16.53-19.91,27.09,4.77-2.31,9.54-4.62,14.3-6.94-3.99,7.53-5.04,16.57-2.88,24.82s7.51,15.61,14.83,19.6l-1.47-6.09c1.54.98,1.67,1.22,3.18,1.78-1.21-5.01,1.48-12.28,1.48-15.19-3.23-8.77-3.25-19.26.09-27.49-3.19-5.97-6.38-11.94-9.41-18-.02-.05-.05-.1-.22.4Z"/>
    <path class="st7" d="M115.03,150.06c-.76,9.76-2.58,18.94-10.67,24.44,7.65,1.08,10.21-.27,15.67-4.61.82,4.22,1.94,11.51,2.77,15.73,4.33-5.69,7.82-18.77,7.01-25.88,4.2,2.28,8.01,7.87,12.21,10.15-4.49-7.86-6.43-20.51-2.71-32.86-2.96,4.62-11.37,6.97-16.53,6.37l-7.74,6.66Z"/>
    <path class="st3" d="M54.88,146.7c-2.86,7.75-8.79,13.61-16.85,15.45,4.37,2.81,9.88,3.81,14.96,2.71-3.1,8.73,2.5,17.91,9.99,23.51-.42-3.79.42-12.37,0-16.17,6.17,6.17,8.16,7.53,14.47,9.43-3.53-3.91-4.13-10.18-3.3-15.04"/>
    <path class="st11" d="M53.4,142.29c-9.04-.22-16.85-9.27-15.74-18.24"/>
    <path class="st11" d="M56.13,57.88c8.28-4.41,17.87-6.32,27.2-5.44"/>
    <path class="st11" d="M97.26,52.94c21.4,0,31.57,6.79,44.37,21.06,8.7,9.7,9.72,39.09-4.45,51.73"/>
    <path class="st7" d="M111.35,54.14c29.21,8.12,43.97,25.32,47.84,47.97-2.55-2.41-5.1-4.81-7.65-7.22,2.35,9.83-.02,19.79-5.94,27.98"/>
    <path class="st20" d="M86.41,122.12l-1.97,1.81"/>
    <path class="st20" d="M92.23,123.17l-.38,3.23"/>
    <path class="st20" d="M50.88,121.47l-1.82,1.71"/>
    <path class="st20" d="M54.73,123.43l-.39,2.16"/>
    <path class="st20" d="M82.75,105.9c1.76-3.02,5.09-5.05,8.58-5.24"/>
    <path class="st20" d="M60.51,101.11c9.68,1.69,9.91,6.52,9.91,6.52"/>
    <path class="st24" d="M48.63,104.08l-2.41-1.35"/>
    <path class="st24" d="M54.89,101.11l-1.76-2.21"/>
    <path class="st24" d="M64.39,104.52l.7-1.37"/>
    <path class="st11" d="M53.79,77.34c-6.67,9.2-7.51,24.76-3.66,35.65-2.85,18.58-.6,32.76,16.07,45.7,2.29,5.39,7.48,9.43,13.42,9.73,16.57-4.07,31.84-13.27,43.18-26.01"/>
    <path class="st24" d="M86.68,103.74c-1.04-.65-2.08-1.29-3.12-1.94"/>
    <path class="st24" d="M93.43,101.36l-.5-2.9"/>
    <path class="st24" d="M103.04,103.56l1.4-1.84"/>
    <path class="st11" d="M65.71,62.69c-2.72,5.04-5.43,10.09-8.15,15.13,2.87-1.34,5.74-2.69,8.61-4.03-3.75,7.81,1.27,18.46,9.68,20.54-.06-3.83-.13-7.67-.19-11.5,5.92,6.7,15.72,9.69,24.36,7.44-5.08-3.34-8.51-9.06-9.08-15.11"/>
    <path class="st11" d="M121.18,79.1c5.21,21.66-3.24,46-20.75,59.78,9.5-.73,18.66-5.13,25.18-12.07-.97,4.61-1.95,9.22-2.92,13.83,5.08-5.26,10.15-10.52,15.23-15.78"/>
    <g>
      <path class="st27" d="M62.82,112.49c-.44,0-.82-.3-.92-.73l-.71-3.14c-.11-.51.21-1.01.71-1.12l1.03-.23s.17-.02.21-.02c.44,0,.82.3.92.73l.71,3.13c.11.5-.2,1.01-.71,1.12l-1.03.23s-.17.02-.21.02Z"/>
      <path class="st0" d="M63.14,107.81c.17,0,.32.12.36.29l.71,3.14c.04.2-.08.4-.28.44l-1.03.23s-.05,0-.08,0c-.17,0-.32-.12-.36-.29l-.71-3.14c-.04-.2.08-.4.28-.44l1.03-.23s.05,0,.08,0M63.14,106.67c-.11,0-.22.01-.33.04l-1.03.23c-.39.09-.73.33-.94.67-.22.34-.29.74-.2,1.14l.71,3.14c.16.69.76,1.18,1.47,1.18.11,0,.22-.01.33-.04l1.03-.23c.81-.18,1.32-.99,1.14-1.8l-.71-3.14c-.16-.69-.76-1.18-1.47-1.18h0Z"/>
    </g>
    <g>
      <path class="st27" d="M102.02,112.68c-.44,0-.82-.3-.92-.73l-.71-3.14c-.11-.51.21-1.01.71-1.12l1.03-.23s.16-.02.21-.02c.44,0,.82.3.92.73l.71,3.14c.11.51-.21,1.01-.71,1.12l-1.03.23s-.16.02-.21.02Z"/>
      <path class="st0" d="M102.34,108c.17,0,.32.12.36.29l.71,3.14c.04.2-.08.4-.28.44l-1.03.23s-.05,0-.08,0c-.17,0-.32-.12-.36-.29l-.71-3.14c-.04-.2.08-.4.28-.44l1.03-.23s.05,0,.08,0M102.34,106.86c-.11,0-.22.01-.33.04l-1.03.23c-.81.18-1.32.99-1.14,1.8l.71,3.14c.16.69.76,1.18,1.47,1.18.11,0,.22-.01.33-.04l1.03-.23c.39-.09.73-.33.94-.67.22-.34.29-.74.2-1.14l-.71-3.14c-.16-.69-.76-1.18-1.47-1.18h0Z"/>
    </g>
    <path class="st23" d="M86.15,116.55s10.44,4.37,18.22,3.55c1.88-.2,7.23-2.82,7.23-2.82"/>
    <path class="st23" d="M49.09,115.17c1.58,1.39,2.44,2.77,4.69,4.06,4.85.36,11.03-.31,15.28-2.67"/>
    <path class="st24" d="M67.44,128.27l3.08,4.43"/>
    <path class="st16" d="M50.75,85.37c-12.19-16.09-16.2-38.08-10.58-57.56,1.31,14.67,10.51,28.41,23.58,35.2"/>
    <path class="st16" d="M94.13,79.25c-10.54-16.5-13.91-37.41-9.99-55.98,5.12,22.5,19.46,42.76,37.88,56.63v3.04"/>
    <path class="st8" d="M90.94,75.15c2.45,5.64,4.01,11.77,9.08,15.11-8.65,2.25-18.45-.74-24.36-7.44.06,3.83.13,7.67.19,11.5-8.41-2.08-13.43-12.73-9.68-20.54-2.87,1.34-5.74,2.69-8.61,4.03,2.72-5.04,5.43-10.09,8.84-14.4-4.24.08-8.41-2.54-10.19-6.39,8.99-1.79,18.06-3.15,27.18-4.09,2.39,7.78,4.68,15.58,7.56,22.21Z"/>
    <path class="st6" d="M121.18,79.1c5.21,21.66-3.24,46-20.75,59.78,9.5-.73,18.66-5.13,25.18-12.07-.97,4.61-1.95,9.22-2.92,13.83,5.08-5.26,10.15-10.52,13.72-14.81,11.75-13.05,14.26-33.6,6-49.09-8.26-15.49-26.73-24.85-44.11-22.36l22.89,24.73Z"/>
  </g>
</svg>