<?xml version="1.0" encoding="UTF-8"?>
<svg xmlns="http://www.w3.org/2000/svg" xmlns:xlink="http://www.w3.org/1999/xlink" viewBox="0 0 217.02 219.21">
  <defs>
    <style>
      .cls-1 {
        fill: #1373bc;
      }

      .cls-1, .cls-2 {
        opacity: .53;
      }

      .cls-3 {
        opacity: .57;
      }

      .cls-3, .cls-4 {
        fill: #4a88c5;
      }

      .cls-5 {
        fill: #a4c4d6;
        opacity: .92;
      }

      .cls-5, .cls-6, .cls-7, .cls-8, .cls-9, .cls-10, .cls-11, .cls-12, .cls-13, .cls-14, .cls-15, .cls-16, .cls-17, .cls-18, .cls-19, .cls-20, .cls-21, .cls-22, .cls-23, .cls-24, .cls-25, .cls-26, .cls-27, .cls-28, .cls-29, .cls-30 {
        stroke-width: .24px;
      }

      .cls-5, .cls-8, .cls-10, .cls-11, .cls-12, .cls-13, .cls-14, .cls-15, .cls-16, .cls-17, .cls-18, .cls-19, .cls-20, .cls-21, .cls-22, .cls-24, .cls-31, .cls-27, .cls-28, .cls-29, .cls-30 {
        stroke-miterlimit: 10;
      }

      .cls-5, .cls-20, .cls-27 {
        stroke: #2f5255;
      }

      .cls-6 {
        stroke: #709ecb;
      }

      .cls-6, .cls-7, .cls-9, .cls-23, .cls-25, .cls-26 {
        stroke-linejoin: round;
      }

      .cls-6, .cls-25, .cls-32 {
        fill: #609bca;
      }

      .cls-33 {
        fill: #99b2d2;
      }

      .cls-34 {
        fill: #b8b1db;
      }

      .cls-34, .cls-10, .cls-22, .cls-35, .cls-36, .cls-28, .cls-29, .cls-30 {
        opacity: .25;
      }

      .cls-37, .cls-38, .cls-36 {
        fill: #0d6c9c;
      }

      .cls-37, .cls-39 {
        opacity: .41;
      }

      .cls-40 {
        fill: #a5cad8;
      }

      .cls-41 {
        fill: url(#Degradado_sin_nombre_69);
        opacity: .5;
      }

      .cls-42 {
        opacity: .55;
      }

      .cls-42, .cls-43 {
        fill: #bccddb;
      }

      .cls-44 {
        opacity: .8;
      }

      .cls-44, .cls-45, .cls-46, .cls-39, .cls-47 {
        fill: #3d82c3;
      }

      .cls-48, .cls-49 {
        opacity: .03;
      }

      .cls-48, .cls-49, .cls-50, .cls-51, .cls-52, .cls-53, .cls-54 {
        mix-blend-mode: multiply;
      }

      .cls-48, .cls-50, .cls-53 {
        fill: #74add0;
      }

      .cls-7 {
        fill: #fff;
      }

      .cls-7, .cls-26 {
        stroke: #74a5ce;
      }

      .cls-38 {
        opacity: .4;
      }

      .cls-55 {
        fill: #8db4d2;
      }

      .cls-45 {
        opacity: .56;
      }

      .cls-8 {
        stroke: #4382af;
      }

      .cls-8, .cls-9, .cls-11, .cls-12, .cls-13, .cls-16, .cls-17, .cls-18, .cls-21, .cls-22, .cls-23, .cls-24, .cls-31, .cls-27 {
        fill: none;
      }

      .cls-56 {
        fill: url(#Degradado_sin_nombre_67);
      }

      .cls-56, .cls-57 {
        opacity: .51;
      }

      .cls-9, .cls-17, .cls-18, .cls-19 {
        stroke: #22437a;
      }

      .cls-58, .cls-59, .cls-14, .cls-19, .cls-20 {
        fill: #22437a;
      }

      .cls-59, .cls-17 {
        opacity: .61;
      }

      .cls-10 {
        fill: #6da2cc;
      }

      .cls-10, .cls-28, .cls-29, .cls-30 {
        stroke: #2d4f6a;
      }

      .cls-11, .cls-22 {
        stroke: #000;
      }

      .cls-12, .cls-14 {
        stroke: #67a1cc;
      }

      .cls-60 {
        fill: #1f6f8c;
      }

      .cls-60, .cls-61 {
        opacity: .26;
      }

      .cls-13, .cls-31 {
        stroke: #4a88c5;
      }

      .cls-15 {
        fill: #67a1cc;
        stroke: #1f516f;
      }

      .cls-16 {
        stroke: #24625d;
      }

      .cls-16, .cls-62 {
        opacity: .42;
      }

      .cls-57 {
        fill: url(#Degradado_sin_nombre_68);
      }

      .cls-63 {
        fill: url(#Degradado_sin_nombre_71);
      }

      .cls-64 {
        fill: #a9d5da;
      }

      .cls-64, .cls-65 {
        opacity: .6;
      }

      .cls-66 {
        fill: url(#Degradado_sin_nombre_72);
      }

      .cls-61 {
        fill: #1d7a9b;
      }

      .cls-67 {
        fill: #4073b1;
      }

      .cls-68 {
        fill: #92c0d5;
      }

      .cls-69 {
        isolation: isolate;
      }

      .cls-70 {
        fill: #2f5255;
        opacity: .37;
      }

      .cls-46 {
        opacity: .59;
      }

      .cls-71 {
        fill: #d1ceda;
      }

      .cls-21 {
        stroke: #3e688a;
      }

      .cls-2 {
        fill: #7eadce;
      }

      .cls-72 {
        opacity: .11;
      }

      .cls-49, .cls-51 {
        fill: url(#linear-gradient);
      }

      .cls-65 {
        fill: url(#Degradado_sin_nombre_70);
      }

      .cls-23 {
        stroke: #4680ab;
      }

      .cls-24 {
        opacity: .47;
        stroke: #376ba2;
      }

      .cls-73 {
        fill: #2172bf;
        opacity: .18;
      }

      .cls-50, .cls-47 {
        opacity: .33;
      }

      .cls-25 {
        stroke: #425453;
      }

      .cls-26 {
        fill: #d1dddf;
      }

      .cls-51 {
        opacity: .09;
      }

      .cls-52 {
        fill: url(#linear-gradient-2);
        opacity: .14;
      }

      .cls-31 {
        stroke-width: .48px;
      }

      .cls-74 {
        fill: #8abed6;
      }

      .cls-75 {
        fill: #90bdd3;
      }

      .cls-76 {
        fill: #6ea4e7;
      }

      .cls-53 {
        opacity: .3;
      }

      .cls-62 {
        fill: #cad7da;
      }

      .cls-28 {
        fill: #559bca;
      }

      .cls-77 {
        mix-blend-mode: hard-light;
        opacity: .68;
      }

      .cls-77, .cls-54 {
        fill: #36617f;
      }

      .cls-29 {
        fill: #75a3cc;
      }

      .cls-54 {
        opacity: .23;
      }

      .cls-78 {
        fill: #0f73ba;
        opacity: .66;
      }

      .cls-30 {
        fill: #699cca;
      }
    </style>
    <linearGradient id="Degradado_sin_nombre_72" data-name="Degradado sin nombre 72" x1="108.51" y1="173.25" x2="108.51" y2="4.85" gradientUnits="userSpaceOnUse">
      <stop offset="0" stop-color="#000" stop-opacity="0"/>
      <stop offset="0" stop-color="#000001" stop-opacity="0"/>
      <stop offset=".15" stop-color="#051827" stop-opacity=".31"/>
      <stop offset=".3" stop-color="#0a2c46" stop-opacity=".56"/>
      <stop offset=".45" stop-color="#0e3b5e" stop-opacity=".75"/>
      <stop offset=".62" stop-color="#104670" stop-opacity=".89"/>
      <stop offset=".79" stop-color="#124c7a" stop-opacity=".97"/>
      <stop offset="1" stop-color="#134f7e"/>
    </linearGradient>
    <linearGradient id="Degradado_sin_nombre_71" data-name="Degradado sin nombre 71" x1="91.53" y1="17.26" x2="108.31" y2="194.38" gradientUnits="userSpaceOnUse">
      <stop offset="0" stop-color="#abcad8" stop-opacity="0"/>
      <stop offset=".29" stop-color="#698089" stop-opacity=".44"/>
      <stop offset=".68" stop-color="#2b3a3e" stop-opacity=".85"/>
      <stop offset="1" stop-color="#162224"/>
    </linearGradient>
    <radialGradient id="Degradado_sin_nombre_70" data-name="Degradado sin nombre 70" cx="110.81" cy="99.42" fx="110.81" fy="99.42" r="37.54" gradientUnits="userSpaceOnUse">
      <stop offset="0" stop-color="#92c0d5"/>
      <stop offset=".11" stop-color="#88b3c7" stop-opacity=".93"/>
      <stop offset=".31" stop-color="#6f92a2" stop-opacity=".76"/>
      <stop offset=".58" stop-color="#465c66" stop-opacity=".48"/>
      <stop offset=".92" stop-color="#0e1215" stop-opacity=".1"/>
      <stop offset="1" stop-color="#000" stop-opacity="0"/>
    </radialGradient>
    <radialGradient id="Degradado_sin_nombre_69" data-name="Degradado sin nombre 69" cx="108.07" cy="101" fx="108.07" fy="101" r="14.48" gradientUnits="userSpaceOnUse">
      <stop offset="0" stop-color="#97c0d4"/>
      <stop offset=".26" stop-color="#87b5d1"/>
      <stop offset=".75" stop-color="#6098c9"/>
      <stop offset="1" stop-color="#4a88c5"/>
    </radialGradient>
    <linearGradient id="Degradado_sin_nombre_68" data-name="Degradado sin nombre 68" x1="93.83" y1="47.01" x2="93.83" y2="31.73" gradientUnits="userSpaceOnUse">
      <stop offset="0" stop-color="#000" stop-opacity="0"/>
      <stop offset=".19" stop-color="#08171e" stop-opacity=".16"/>
      <stop offset=".6" stop-color="#1d516c" stop-opacity=".58"/>
      <stop offset="1" stop-color="#348ebc"/>
    </linearGradient>
    <linearGradient id="Degradado_sin_nombre_67" data-name="Degradado sin nombre 67" x1="117.25" y1="46.45" x2="117.25" y2="31.83" gradientUnits="userSpaceOnUse">
      <stop offset="0" stop-color="#000" stop-opacity="0"/>
      <stop offset=".13" stop-color="#010304" stop-opacity=".02"/>
      <stop offset=".27" stop-color="#050c11" stop-opacity=".09"/>
      <stop offset=".42" stop-color="#0b1b27" stop-opacity=".2"/>
      <stop offset=".57" stop-color="#143045" stop-opacity=".35"/>
      <stop offset=".73" stop-color="#1f4b6c" stop-opacity=".55"/>
      <stop offset=".88" stop-color="#2d6c9b" stop-opacity=".79"/>
      <stop offset="1" stop-color="#3a8ac6"/>
    </linearGradient>
    <linearGradient id="linear-gradient" x1="135.28" y1="132.06" x2="171.4" y2="157.58" gradientUnits="userSpaceOnUse">
      <stop offset="0" stop-color="#fff"/>
      <stop offset="0" stop-color="#f9f9f9"/>
      <stop offset=".09" stop-color="#c5c5c5"/>
      <stop offset=".17" stop-color="#969696"/>
      <stop offset=".26" stop-color="#6e6e6e"/>
      <stop offset=".35" stop-color="#4c4c4c"/>
      <stop offset=".45" stop-color="#303030"/>
      <stop offset=".55" stop-color="#1a1a1a"/>
      <stop offset=".67" stop-color="#0b0b0b"/>
      <stop offset=".8" stop-color="#020202"/>
      <stop offset="1" stop-color="#000"/>
    </linearGradient>
    <linearGradient id="linear-gradient-2" x1="93.46" y1="120.53" x2="69.64" y2="144.35" gradientUnits="userSpaceOnUse">
      <stop offset="0" stop-color="#fff"/>
      <stop offset="0" stop-color="#f5f5f5"/>
      <stop offset=".05" stop-color="#c7c7c7"/>
      <stop offset=".09" stop-color="#9c9c9c"/>
      <stop offset=".14" stop-color="#777"/>
      <stop offset=".2" stop-color="#565656"/>
      <stop offset=".25" stop-color="#3b3b3b"/>
      <stop offset=".32" stop-color="#252525"/>
      <stop offset=".4" stop-color="#141414"/>
      <stop offset=".49" stop-color="#080808"/>
      <stop offset=".63" stop-color="#010101"/>
      <stop offset="1" stop-color="#000"/>
    </linearGradient>
  </defs>
  <g class="cls-69">
    <g id="Capa_2">
      <g id="Capa_15">
        <path class="cls-11" d="M101.94,56.6c.92,2.75,4.04,4.57,6.89,4.01s5.05-3.43,4.85-6.33"/>
        <path class="cls-11" d="M98.36,57.23c3.72,3.78,7.44,7.57,11.16,11.35,1.58,1.6,4.09,2.2,6.22,1.47s3.76-2.73,4.03-4.96"/>
        <path class="cls-11" d="M105.63,64.25c4.14,1.04,8.86-1.41,10.4-5.39"/>
        <path class="cls-11" d="M88.8,7.66l10.26-.52"/>
        <path class="cls-66" d="M38.87,101.94c3.2-3.52,6.4-7.04,9.6-10.56,3.23-13.7,12.78-26.88,25.56-35.25-6.06-7.54-9.47-16.9-9.86-26.42,4.85-9.8,11.82-17.77,20.64-22.17-1.04-2.37,6.21-8.77,19.25-7.33,7.75.85,9.68-.94,17.05,1.6,7.37,2.54,9.19,12.97,13.41,19.52,4.22,6.55,8.97,19.69,4.1,24.48,6.24,21.62,50.91,42.87,73.04,50.98-5.79,24.17,1.83,97.81,5.36,122.42l-36.23-46.75L3.32,177.59,0,123.64l38.87-21.7Z"/>
        <path class="cls-63" d="M115.8,12c5.24-2.66,11.43,2.62,12.96,8.76s-.04,12.61-1.04,18.88c-1,6.27-1.23,13.35,2.38,18.32,7.35,10.12,7.14,26.02-.47,35.9,20.9,25.17,15.8,9.91,22.39,19.61,10.99,16.17,19.55,41.75,28.46,61.42l-141.81,1.16c-5.36.04-8.44-7.87-6.2-13.25s7.71-8.19,12.96-9.4,10.74-1.28,15.78-3.3c5.04-2.02,9.77-6.78,9.78-12.7-6.77-7.47-9.61-19-7.2-29.23s9.98-18.77,19-20.9c-.96-11.46,2.41-23.29,10.02-34.7-7.26.75-14.69-4.46-17.17-12.03s.21-16.82,7.81-22.26c-.39-5.74,2.57-11.58,7.2-14.22s10.66-1.91,25.13,7.93Z"/>
        <path class="cls-77" d="M82.96,96.24c-1.63-1.12-4.23-.23-4.85,1.65-1.21,3.71-.83,7.91,1.04,11.33s5.19,6.03,8.96,7.02c1.3.34,2.76-.83,2.71-2.17-.25-6.8-2.55-14.19-7.86-17.82Z"/>
        <path class="cls-77" d="M83.52,95.95c-1.63-1.12-4.23-.23-4.85,1.65-1.21,3.71-.83,7.91,1.04,11.33s5.19,6.03,8.96,7.02c1.3.34,2.76-.83,2.71-2.17-.25-6.8-2.55-14.19-7.86-17.82Z"/>
        <path class="cls-77" d="M146.7,116.61c.19-1.97-1.85-3.82-3.79-3.44-3.83.74-7.32,3.11-9.41,6.4-2.09,3.29-2.76,7.46-1.8,11.24.33,1.3,2.06,2.02,3.21,1.32,5.83-3.51,11.18-9.11,11.78-15.51Z"/>
        <path class="cls-54" d="M92.99,51.51c-4.29,5.25,20.07,29.9,26.95,13.99,6.88-15.91-.94-18.3-.94-18.3l-6.47,8.21-3.12,1.57-.02-.08-4.73-2.51s-10.16-4.72-11.67-2.88Z"/>
        <path class="cls-5" d="M87.02,26.76c.65,8.79,3.34,17.42,7.81,24.63,3.07,2.29,6.63,5.37,11.42,5.87,5.34-.39,10.88-5.77,11.51-7.3,3.33-8.07,5.77-15.12,5.62-22.63-.37-6.14-4.04-11.99-9.42-15-5.37-3.01-12.27-3.08-17.71-.19s-9.67,8.68-9.23,14.62Z"/>
        <path class="cls-55" d="M119.01,47.14c2.32-.56,4.31-2.33,5.13-4.57s.44-4.88-1.31-6.97c-1.4,3.94-2.8,7.88-3.82,11.54Z"/>
        <ellipse class="cls-65" cx="109.59" cy="100.47" rx="28.53" ry="29.7"/>
        <ellipse class="cls-41" cx="108.75" cy="101.12" rx="21.77" ry="20.92"/>
        <path class="cls-68" d="M130.17,110.93c.45-2.8,2.9-5.17,6.27-5.85-1.28-1.87-1.38-4.46-.27-6.43s3.4-3.21,5.41-2.84c-.1,3.27-.2,6.54.04,9.72.77,1.91,1.53,3.83,2.45,5.36,1.49.91,2.25,2.86,1.77,4.54s-2.18,2.92-4.06,3.21c.63,1.26.36,2.92-.65,3.92s-2.67,1.25-4.32,1.11c-.46,1.82-1.89,3.37-3.68,3.96s-3.86.2-5.69-.9c.05,1.57-1.8,2.65-3.35,2.41s-2.8-1.38-3.91-2.49-2.27-2.3-3.63-3.17c.27-1.5,1.62-2.73,3.13-2.88s3.07.8,4.4,1.77c-1.41-4.77,1.38-10.4,6.09-11.43Z"/>
        <path class="cls-40" d="M94.03,92.96c.02-2.04-1.59-3.98-3.6-4.34s-4.19.91-5.14,3.11c.59-1.38,0-3.15-1.28-3.91s-3.12-.44-3.92,1.33c1.75,1.42,2.8,3.68,3.23,6.29-1.29.47-2.21,1.83-2.17,3.2s1.04,2.67,2.79,2.83c-.76,1.86.03,4.21,1.88,5.2-.37,3.3,2.26,6.64,5.97,7.03,3.8-.65,6.24-5.41,4.81-9.04-2.39-.53-4.95,1.78-4.28,4.4-1.15-.69-2.3-1.38-3.54-2.02,1.64-.92,3.27-1.91,4.55-3.29s2.17-3.21,2.06-5.08-1.4-3.73-3.24-4.13-3.96,1.04-3.72,2.88c-.03-1.44.7-2.88,1.88-3.7s2.78-1.02,3.72-.76Z"/>
        <path class="cls-57" d="M85.98,35.2c4.12,3.42,10.31,3.47,15.7,4.12-.5,4.7-6.08,10.83-10.98,10.81"/>
        <path class="cls-56" d="M124.56,33.2c-3.5,7.13-9.34,4.05-14.62,5.15,1.2,3.12,2.73,10.45,9.76,9.71"/>
        <path class="cls-62" d="M97.31,101.43c-2.24,5.29,14.85,18.67,24.47,1.97,2.52-4.37-13.83-27.13-24.47-1.97Z"/>
        <ellipse class="cls-71" cx="109.37" cy="100.96" rx="2.65" ry="6.84"/>
        <ellipse class="cls-3" cx="109.33" cy="101.21" rx=".74" ry="3.16"/>
        <path class="cls-16" d="M97.48,96.79c2-3.13,4.08-6.35,7.19-8.39s7.53-2.56,10.4-.2c3.46,2.83,6.93,5.67,10.39,8.5"/>
        <path class="cls-24" d="M101.67,110.91c2.78,3.73,7.82,5.61,12.36,4.61s8.33-4.82,9.29-9.36"/>
        <path class="cls-31" d="M97.67,101.37c.37-4.05,4.17-8.72,7.78-10.6s6.69-1.31,9.92,1.17c3.81,2.93,5.21,5.97,6.67,9.89"/>
        <path class="cls-37" d="M144.99,111.45c-1.39-.73-3.25-.44-4.35.69s-1.34,2.99-.57,4.37c-1.46-.67-3.3-.41-4.52.64s-1.73,2.84-1.75,4.38c-1.55-.91-3.67-.74-5.06.4s-1.96,3.19-1.21,4.22c1.28,1.63,3.59,2.37,5.58,1.79s3.54-2.45,3.74-4.51c1.46.44,3.15,0,4.23-1.07s1.51-2.77,1.07-4.23c1.6-.12,3.07-1.26,3.59-2.78s.12-3.43-.76-3.9Z"/>
        <path class="cls-36" d="M131.99,111.41l-1.12,3.97c1.3-1.48,2.61-2.96,3.91-4.44-.68-.03-1.35-.05-2.03-.08-.3.3-.6.61-.76.55Z"/>
        <path class="cls-38" d="M83.06,95.98c.8-1.82,1.61-3.63,2.87-4.66,2.23.95,3.33,3.91,2.27,6.09,1.45.51,1.79,2.81.54,3.72,2.18,1.23,2.5,4.75.59,6.36,1.87-.49,3.78,1.81,2.97,3.56s-3.8,1.76-4.63.01c-.74-1.57-1.49-3.14-2.23-4.72-2.01-.91-2.57-3.98-1.02-5.55-1.39.23-2.86-.88-3.03-2.27s.99-2.82,1.68-2.55Z"/>
        <path class="cls-70" d="M89.12,38.07c.67,2.57,2.78,4.71,5.34,5.41s5.47-.06,7.35-1.93c2.03-2.01,5.85-2.17,7.92.22,1.2,1.78,2.99,2.72,5.25,2.64,2.52-.09,5.51-2.54,6.22-4.57.97-2.77.9-4.31,1.7-6.66,1.18-6.71-1.64-13.97-7.04-18.13s-13.14-5.03-19.44-1.17c-4.29,2.17-7.61,6.2-8.91,10.84s.56,9.31,1.62,13.36Z"/>
        <path class="cls-35" d="M104.41,54.67c1.01.23,2.02-.3,3.04-.07,0-.78-.6-.76-1.36-.92s-1.6.25-1.67.99Z"/>
        <path class="cls-34" d="M104.1,46.38c.21.61.74,2.13,1.39,2.1s1.35-1.5,1.52-2.25c.2.75.97,1.31,1.75,1.26,0-1.8-1.69-4.57-2.5-6.18-.31-.61-1.29-.56-1.64.02-2.11,3.5-1.53,4.67-2.31,6.34.76-.99,1.43-.8,1.81-1.3Z"/>
        <path class="cls-35" d="M128.52,43.24c-1.15,2.39-.53,5.51,1.46,7.27-2.22.25-3.49,2.9-3.1,5.1s1.91,3.99,3.38,5.67c-5.35-3.92-6.6-12.38-1.74-18.05Z"/>
        <path class="cls-35" d="M87.61,28.24c-4.06,4.82-4.76,12.21-1.54,18.65,4.44,4.73,3.93,13.19-1.54,17.66l-3.85,2.8c1.2-.09,2.39-.19,3.61.11l-1.54,1.27c4.69-1.44,8.5-5.44,9.73-10.19s-.18-10.09-3.59-13.62c-2.49-2.58-2.25-7.26.48-9.57l-1.75-7.11Z"/>
        <path class="cls-72" d="M149.95,68.63c.75,4.99,1.53,10.06,3.77,14.62s6.19,8.64,11.47,10.07,11.89-.44,14.51-4.98c-10.72-6.8-21.68-13.3-29.76-19.71Z"/>
        <path class="cls-36" d="M65.45,123.87c-6.23-4.25-8.31-12.56-8.19-20.1s1.94-15.03,1.4-22.56c-6.73,14.51-14.94,28.32-24.49,41.15-2.06,2.77.49,6.65,3.28,8.69s6.28,4.1,6.6,7.54c7.27-5.03,14.53-10.07,21.4-14.72Z"/>
        <path class="cls-35" d="M93.15,10.47c-6.45,1.8-12.2,6.18-16.18,13.18-4.36,9.17-.96,21.71,7.95,27.54l1.14-.24c-1.7-2.93-3.41-5.85-5.83-10.33.99-10.82,5.33-21.22,12.92-30.14Z"/>
        <path class="cls-36" d="M126.66,126.29l-3.02-4.3c.17-1.02,1.5-1.53,2.44-1.1s1.44,1.5,1.48,2.53-.29,2.03-.9,2.87Z"/>
        <path class="cls-50" d="M87.59,38.09c1.74,3.16,3.48,6.31,5.22,9.47.66,1.2,1.33,2.41,1.99,3.61-2.01-5.13-4.02-10.26-6.28-15.43l-.46-.61c-.25,1.06-.88,2.23-.47,2.96Z"/>
        <path class="cls-48" d="M118.64,30.88c2.09,2.77,1.99,6.63,1.17,10-.82,3.37-2.24,6.63-2.49,10.09.82-1.45,1.63-2.9,2.45-4.35-.19-2.77.57-5.59,2.11-7.89.9-1.35,1.06-3.16.4-4.65s-2.11-2.58-3.65-3.21Z"/>
        <path class="cls-53" d="M102.08,36.85l1.38,2.53c-.41.5-.83,1-1.24,1.5.03-1.25.06-2.51-.14-4.03Z"/>
        <path class="cls-74" d="M105.79,46.38l-.34.17c0,.17.18.32.32.26s.2-.3.01-.42Z"/>
        <path class="cls-42" d="M104.85,49.4c.31.24.74.29,1.13.21s.74-.26,1.09-.45c-.77.29-1.58.31-2.38.14.05.02.05.08.17.1Z"/>
        <path class="cls-43" d="M107.07,51.74c-.15-.11-.4.06-.36.24.16-.05.31-.11.47-.16-.03-.03-.08-.05-.11-.08Z"/>
        <path class="cls-43" d="M107.56,51.57c.05.11.18.17.3.15s.21-.14.2-.26c.31.12.7-.14.69-.47-.24.16-.47.32-.71.48-.18.04-.36.09-.48.11Z"/>
        <path class="cls-51" d="M133.49,132.14c7.52,9.91,16.57,18.65,26.72,25.83,2.06,1.45,4.91,1.7,7.18.61s3.88-3.45,4.77-6.11c-2.27-2.49-4.55-4.97-6.82-7.46-12.21-.26-24.27-5.09-31.84-12.87Z"/>
        <path class="cls-52" d="M91.29,116.31c-3.39,9.44-10.98,17.28-20.31,20.96-1.47,3.29-2.95,6.58-4.42,9.88,14.08-3.42,25.17-16.69,24.73-30.83Z"/>
        <path class="cls-61" d="M105.66,50.89c.6-.5,1.44-.76,2.25-.69s1.5-.03,2.04.56c-1.15,1.4-1.96,2.08-4.34,2.08s-3.34-.63-3.8-1.92c1.12-.77,2.8-.78,3.86-.02Z"/>
        <path class="cls-60" d="M103.68,46.82c1.86,2,2.83.94,3.83.03l.09-.52c.09.18.19.36.28.53.31-.91-.18-2-1.03-2.46s-1.95-.32-2.74.23-1.27,1.48-1.41,2.44c.39-.13.79-.26.99-.26Z"/>
        <path class="cls-78" d="M101.58,55.89c.87,2.71,4.99,4.59,6.68,4.13,2.75-.75,5.12-3.09,5.14-5.94-3.12,3.21-8.46,3.95-11.82,1.81Z"/>
        <path class="cls-59" d="M96.39,15.64c-.65,3.74.3,7.71,2.58,10.81s5.88,5.27,9.78,5.92c-7.42-3.25-11.85-11.8-10.06-19.44-2.08.32-3.69,2.38-3.44,4.39.23-.24.45-.48,1.13-1.68Z"/>
        <path class="cls-59" d="M107.42,23.91c1.01,5.2,6.21,9.42,11.89,9.65-5.38-3.1-9.81-7.6-12.65-12.86-.59,1.66-.08,3.61.76,3.21Z"/>
        <path class="cls-59" d="M115.37,28.43c3.74,1.88,6.28,5.82,6.4,9.92,1.51-2.32-.06-5.37-1.92-7.44s-4.19-4.13-4.34-6.87c.03,1.67.05,3.33-.14,4.39Z"/>
        <path class="cls-59" d="M86.81,39.58c2.11-2.16,3.36-5.13,3.46-8.15,1.15,1.11,2.3,2.22,3.46,3.32-1.16-2.24-2.31-4.47-3.47-6.71-.31,3.74-1.42,7.41-3.24,10.69-.09.19-.18.37-.2.85Z"/>
        <path class="cls-4" d="M98.28,13.25c-1.31,8.57,4.37,17.68,12.65,20.27-2.33-3.85-3.82-8.19-4.36-12.66,2.68,5.57,7.38,10.14,13.02,12.68-2.47-1.91-4.06-4.92-4.24-8.04,2.47,3.55,4.95,7.11,7.22,10.38,1.63,1.57,2.37,4.01,1.88,6.22s-2.2,4.11-3.08,6.15c-3.26,1.95-5.27,5.82-4.98,9.61s2.86,7.31,6.38,8.74c4.49,1.82,7.79,6.25,8.26,11.07s-1.94,9.8-6.16,13.21c4.47-1.48,8.12-5.25,9.43-9.78,1.32-4.52.27-9.67-2.8-13.97,4.12,2.82,6.97,7.42,7.68,12.36,1.87-4.34,0-9.95-5.13-13.03,2.66,1.08,5.79.96,8.35-.33-6.09-.17-11.27-6.4-11.14-12.25,2.39-2.4,3.64-5.89,3.32-9.27s-2.2-6.57-5.05-9.05c.27-7.17-2.26-14.42-6.94-19.86s-11.46-9.03-18.6-9.83c-3.37-.38-6.89,1.28-8.73,4.12-7.04,2.33-12.92,7.93-15.59,14.84s-2.07,15.02,1.68,22.3c2.39,1.32,3.97,3.99,3.98,6.72s-1.56,5.41-3.94,6.74c-2.1,1.17-3.56,3.4-3.81,5.79s.74,4.87,2.55,6.45c2.04,1.77,2.82,4.83,1.89,7.36s-3.53,4.35-6.04,4.2c1.93,1.13,4.47,1.14,6.4.03s3.2-3.32,3.7-5.56c.29,4.93,4.27,9.4,9.13,10.26-3.88-5.09-4.33-12.56-.69-17.85,2.93-2.97,4.5-7.23,4.18-11.39s-4.9-9.69-7.42-13.04c-1.83-4.03-1.26-6.51-3.37-10.63,2.23-2.95,2.97-6.96,2.59-10.48.22,3.01,1.48,5.93,3.51,8.16-1.95-6.91-.73-14.64,3.26-20.61.24.34.49.69.97-.02Z"/>
        <path class="cls-33" d="M92.93,35.05c-.1,2.06,1.12,4.12,2.97,5.02s4.23.6,5.79-.75c.18-.16.25-.43.17-.65-.53-1.53-1.68-2.83-3.13-3.54s-3.18-.83-5.8-.08Z"/>
        <path class="cls-33" d="M109.31,38.99c.4-1.6,1.46-3.02,2.88-3.87s3.17-1.11,4.77-.7c.92.23,1.51,1.32,1.79,1.96-.54,1.66-1.87,3.04-3.51,3.63s-3.54.4-5.93-1.02Z"/>
        <path class="cls-25" d="M113.65,40.29c.51-.6,1.44-.8,2.15-.46-.68-.34-1.09-1.15-.96-1.9s.79-1.38,1.54-1.47c-.57.27-1.28.2-1.79-.16s-.8-1.02-.57-1.87c-2.24.63-4.12,2.44-4.82,4.67-.11.34.08.75.4.89s.75,0,.99-.18c1,.22,2,.45,3.07.49Z"/>
        <path class="cls-9" d="M110.65,39.83c2.59,1.24,6.05.11,7.41-2.4"/>
        <path class="cls-9" d="M114,40.24c1.87.09,3.77-.78,4.63-1.7l.91.15"/>
        <path class="cls-9" d="M116.98,39.77l.64.53"/>
        <path class="cls-23" d="M112.1,41.94l.26,2.82"/>
        <path class="cls-23" d="M113.3,42.33l.11,1.64"/>
        <path class="cls-23" d="M114.86,42.53l.51,2.23"/>
        <path class="cls-23" d="M116.47,42.16l.45,1.44"/>
        <path class="cls-23" d="M117.88,41.57l.65,1.3"/>
        <path class="cls-9" d="M109.08,33.86c2.39-2.46,6.48-3.05,9.48-1.38"/>
        <path class="cls-26" d="M111.91,39.75c-.41-.17-.64-1.33-.39-2.02s.87-.57,1.04.22-.2,1.99-.66,1.8Z"/>
        <path class="cls-18" d="M101.36,51.17c1.3-.83,3.15-1.24,4.44-.39,1.2-.84,2.92-.85,4.14-.03"/>
        <path class="cls-21" d="M104.59,53.89c.85-.43,1.96-.31,2.69.3"/>
        <path class="cls-15" d="M106.62,47.73l.91-.91c.18.17.35.34.53.51-.41.09-.81.19-1.44.4Z"/>
        <path class="cls-8" d="M92.86,33.49c2.27-1.14,5.25-.75,7.12.94"/>
        <path class="cls-14" d="M100.64,35.5l1.17,1.21"/>
        <path class="cls-20" d="M109.39,36.38l1.01-1.41"/>
        <path class="cls-27" d="M109.59,35.17c1.54-1.57,3.89-2.29,6.04-1.84"/>
        <path class="cls-75" d="M92.5,47.34c-2.38-.56-4.42-2.33-5.26-4.57s-.45-4.88,1.34-6.97c1.43,3.94,2.87,7.88,3.92,11.54Z"/>
        <path class="cls-6" d="M97.51,40.36c-.49-.59-1.39-.79-2.08-.45.66-.34,1.06-1.14.93-1.88s-.76-1.36-1.49-1.45c.55.27,1.24.2,1.74-.16s.78-1.01,1.07-2.2c2,.78,3.57,2.68,4.35,4.84-1.2,1.21-3.07,1.66-4.51,1.3Z"/>
        <path class="cls-19" d="M90.96,34.99l1.86,1.21c1.4-1.35,3.46-1.9,5.28-1.41s3.3,1.99,3.92,3.92c-.54-2.1-2.23-3.89-4.33-4.59s-4.56-.28-6.72.87Z"/>
        <path class="cls-9" d="M100.73,39.97c-2.65,1.24-6.19.11-7.59-2.4"/>
        <path class="cls-9" d="M97.3,40.38c-1.92.09-3.86-.78-4.74-1.7l-.93.15"/>
        <path class="cls-9" d="M94.25,39.91l-.66.53"/>
        <path class="cls-23" d="M99.25,42.08c-.09.94-.18,1.88-.27,2.82"/>
        <path class="cls-23" d="M98.01,42.47l-.11,1.64"/>
        <path class="cls-23" d="M96.42,42.67c-.17.74-.35,1.49-.52,2.23"/>
        <path class="cls-23" d="M94.77,42.3c-.15.48-.31.96-.46,1.44"/>
        <path class="cls-23" d="M93.33,41.71l-.66,1.3"/>
        <path class="cls-9" d="M102.01,33.64c-2.45-2.46-6.64-3.05-9.7-1.38"/>
        <path class="cls-7" d="M99.44,39.89c.42-.17.65-1.33.39-2.02s-.89-.57-1.07.22.2,1.99.67,1.8Z"/>
        <path class="cls-15" d="M104.74,47.73l-1.15-.91c-.22.17-.44.34-.67.51.51.09,1.02.19,1.81.4Z"/>
        <path class="cls-12" d="M103.7,44.77l.21,1.73"/>
        <path class="cls-12" d="M104.56,43.7l.21,2.68"/>
        <path class="cls-12" d="M106.33,43.74l.33,2.6"/>
        <path class="cls-12" d="M107.28,44.77l.29,1.77"/>
        <path class="cls-22" d="M92.35,53.1c1.72,6.55-2.78,14.07-9.36,15.65"/>
        <path class="cls-22" d="M87.83,76.46l7.42-5.86"/>
        <path class="cls-22" d="M131.65,61.85c-3.52-1.61-6.11-5.12-6.59-8.97-.49-3.84,1.14-7.89,4.15-10.32"/>
        <path class="cls-22" d="M132.62,51.51l-4.22,5.76"/>
        <path class="cls-22" d="M83.76,34.25c-1.63-4.07-1.17-8.91,1.19-12.6.3,1.95.59,3.91.89,5.86.5-.96,1-1.92,1.5-2.88"/>
        <path class="cls-29" d="M105.72,18.99l-.4-3.47c.88.51,1.76,1.02,2.65,1.53.71-2.38,3.51-3.9,5.89-3.21s3.93,3.47,3.26,5.86c1.41-.98,3.56-.69,4.65.63s.99,3.48-.23,4.69c-.58-2.09-2.48-3.75-4.63-4.04s-4.42.82-5.53,2.68c.73-1.53.24-3.55-1.1-4.58s-3.42-.98-4.57-.1Z"/>
        <path class="cls-10" d="M85.26,19.62l3.79-4.14c0,1.4,0,2.81,0,4.21,1.11-.73,2.23-1.45,3.34-2.18.93,2.38-.19,5.37-2.46,6.54.06-.98.13-1.95.19-2.93-1.21.35-2.41.7-3.62,1.06.04-.89.09-1.78.13-2.68-.53.14-1.06.29-1.38.12Z"/>
        <path class="cls-30" d="M119.55,55.31l-.24,6.87c.62-.83,1.24-1.66,1.86-2.5.38,2.66,3.06,4.77,5.73,4.51-2.92-2.41-4.58-6.26-4.33-10.04-.68,1.15-1.36,2.31-2.04,3.46-.31-.52-.61-1.04-.98-2.31Z"/>
        <path class="cls-28" d="M93.2,65.03l2.42-5.2c0,1.14,0,2.29,0,3.43.31-.35.63-.71.94-1.06.62,3.37-1.87,7.01-5.24,7.65.63-1.6,1.16-3.25,1.88-4.81Z"/>
        <path class="cls-49" d="M133.49,132.14c7.52,9.91,16.57,18.65,26.72,25.83,2.06,1.45,4.91,1.7,7.18.61s3.88-3.45,4.77-6.11c-2.27-2.49-4.55-4.97-6.82-7.46-12.21-.26-24.27-5.09-31.84-12.87Z"/>
        <path class="cls-58" d="M120.19,34.85l-1.81,1.21c-1.36-1.35-3.38-1.9-5.15-1.41s-3.23,1.99-3.83,3.92c.53-2.1,2.18-3.89,4.23-4.59s4.45-.28,6.57.87Z"/>
        <path class="cls-17" d="M105.6,46.14c-.3.03-.51.41-.36.68s.58.31.77.08.07-.65-.22-.74c-.09.03-.19.05-.19-.02Z"/>
        <path class="cls-18" d="M98.36,57.23c4.44,3.97,8.88,7.94,13.33,11.91,1.45,1.3,3.77,1.52,5.44.52s2.57-3.14,2.12-5.04"/>
        <path class="cls-18" d="M102.24,56.33c.61,2.63,3.43,4.55,6.11,4.14,2.67-.41,4.8-3.07,4.61-5.77"/>
        <path class="cls-18" d="M106.34,64.19c3.56.54,7.36-1.51,8.88-4.77"/>
        <path class="cls-18" d="M63.96,121.46c-8.75-10.39-10.08-26.39-3.17-38.08"/>
        <path class="cls-18" d="M142.77,81c2.48,9.31,4.96,18.62,7.44,27.93"/>
        <path class="cls-32" d="M158.28,40.87c-.11,1.69-.33,3.44-1.48,4.67s-2.69,1.62-4.37,1.51c5.09.35,6.09,4.64,6.09,8.29-.1-1.8-.17-3.66.53-5.32s2.36-3.05,4.15-2.83c-4.09,0-4.9-3.32-4.92-6.32Z"/>
        <path class="cls-32" d="M44.35,71.61c-.05.51-.16,1.04-.74,1.41s-1.34.49-2.19.46c2.55.11,3.05,1.4,3.05,2.5-.05-.54-.08-1.11.26-1.61s1.18-.92,2.08-.86c-2.05,0-2.45-1-2.46-1.91Z"/>
        <path class="cls-1" d="M178.48,149.83c-.06,1.38-.17,2.81-.76,3.82s-1.39,1.32-2.26,1.23c2.63.29,3.15,3.8,3.15,6.78-.05-1.47-.09-2.99.27-4.35s1.22-2.49,2.15-2.32c-2.12,0-2.54-2.72-2.55-5.17Z"/>
        <path class="cls-2" d="M98.14,113.9c-.06,1.38-.17,2.81-.76,3.82s-1.39,1.32-2.26,1.23c2.63.29,3.15,3.8,3.15,6.78-.05-1.47-.09-2.99.27-4.35s1.22-2.49,2.15-2.32c-2.12,0-2.54-2.72-2.55-5.17Z"/>
        <path class="cls-32" d="M57.52,25.34c-.05,1.47-1.74,1.84-1.74,1.84,0,0,1.22.51,1.78,1.8.15.34.85-1.29,1.5-1.83.45-.37-1.05-.3-1.54-1.81Z"/>
        <path class="cls-32" d="M139.71,14.85c-.05,1.47-1.74,1.84-1.74,1.84,0,0,1.22.51,1.78,1.8.15.34.85-1.29,1.5-1.83.45-.37-1.05-.3-1.54-1.81Z"/>
        <path class="cls-32" d="M106.1,134.33c-.05,1.47-1.74,1.84-1.74,1.84,0,0,1.22.51,1.78,1.8.15.34.85-1.29,1.5-1.83.45-.37-1.05-.3-1.54-1.81Z"/>
        <path class="cls-32" d="M70.95,153.4c-.05,1.47-1.74,1.84-1.74,1.84,0,0,1.22.51,1.78,1.8.15.34.85-1.29,1.5-1.83.45-.37-1.05-.3-1.54-1.81Z"/>
        <path class="cls-76" d="M127.27,157.99c-.05,1.47-1.74,1.84-1.74,1.84,0,0,1.22.51,1.78,1.8.15.34.85-1.29,1.5-1.83.45-.37-1.05-.3-1.54-1.81Z"/>
        <path class="cls-64" d="M122.6,84.01c-.05,1.47-1.74,1.84-1.74,1.84,0,0,1.22.51,1.78,1.8.15.34.85-1.29,1.5-1.83.45-.37-1.05-.3-1.54-1.81Z"/>
        <path class="cls-13" d="M94.71,15.14c-4.58,2.82-8.99,6.12-12.07,10.52-3.08,4.41-4.69,10.08-3.28,15.27s6.31,9.52,11.68,9.31"/>
        <path class="cls-13" d="M86.63,50.78c.59,2.6-.68,5.29-2.4,7.32s-3.9,3.64-5.64,5.66-3.05,4.68-2.53,7.29,3.53,4.74,5.93,3.58"/>
        <path class="cls-13" d="M128.79,35.87c4.29,1.98,7.33,6.42,7.62,11.13.29,4.71-2.17,9.5-5.27,11.39,1.56,3.04,5.15,4.89,8.52,4.39"/>
        <path class="cls-67" d="M97.41,13.67c.89.89,1.45-.92,1.84-2.25-.63.92-1.4.73-2.24,1.22-.11-.24-.23-.48-.26-.94l-.67-.15.07-1.08c-.12.18-.46-.05-.35-.23-1.27-.14-2.6.43-3.38,1.45.5-.03.99-.07,1.49-.1l-1.05,1.94,1.91-.52c-1,1.67-1.18,3.81-.47,5.62.94-.81,2.2-3.1,3.13-4.94Z"/>
        <path class="cls-44" d="M85.52,46.3c2.24,1.41,3.7,3.99,3.75,6.64s-1.28,5.28-3.45,6.8c1.2-1.02,2.4-2.04,3.61-3.06-.2,1.53-.39,3.06-.59,4.58,1.95-2.1,2.81-5.15,2.26-7.95s-2.52-5.3-5.57-7Z"/>
        <path class="cls-46" d="M127.19,26.78c1.27,4.8.37,10.13-2.41,14.24.65-.18,1.29-.36,1.94-.53-.44,1.36-.87,2.73-1.31,4.09,3.56-4.52,4.46-11,1.78-17.8Z"/>
        <path class="cls-39" d="M119.26,125.4c1.12-.71,1.09-2.64-.05-3.31s-2.85.24-2.92,1.57c.87.5,1.74,1,2.97,1.75Z"/>
        <path class="cls-47" d="M128.71,126.8c2.65.39,5.4-1.77,5.65-4.44,3.8.87,7.99-2.28,8.21-6.17,1.52-.32,2.56-2.09,2.1-3.57,1.11.81,1.54,2.43.98,3.68s-2.07,2-3.41,1.69c.27,1.75-.45,3.63-1.83,4.75s-3.37,1.43-5.03.79c.1,1.67-.87,3.36-2.37,4.11s-3.44.51-4.29-.85Z"/>
        <path class="cls-45" d="M80.38,89.2l1.55.04c.03.91.07,1.81.1,2.72-.7-.84-1.4-1.69-1.65-2.76Z"/>
        <path class="cls-73" d="M83.74,95.15c3.34,5.03,4.76,11.3,3.89,17.28-1.18-3.48-2.73-6.82-4.5-10.27l.5-1.08c-1.22-.2-2.24-1.28-2.37-2.51s.64-2.5,2.49-3.42Z"/>
      </g>
    </g>
  </g>
</svg>