<?xml version="1.0" encoding="UTF-8"?>
<svg id="Capa_9" xmlns="http://www.w3.org/2000/svg" viewBox="0 0 2062.65 2274">
  <defs>
    <style>
      .cls-1 {
        fill: #1e6fd9;
      }
    </style>
  </defs>
  <path class="cls-1" d="M243.63,1307.92c-.33,25.85-12.89,61.16-21.58,64.67,0,0-23.74,19.28-27.65,13.62-2.97-4.34,7.51-42,6.25-41.48.14-.06-3.18,3.92-9.97,11.92-6.78,8.01-14.38,13.72-22.78,17.12-18.63,7.55-35.56,7.44-50.79-.32-14.22-7.17-24.33-19.27-30.33-36.31-6.49-18.4-6.18-35.93.91-52.59,7.68-17.74,21.67-30.73,41.98-38.96,11.77-4.76,23.92-6.28,36.46-4.54,12.54,1.75,18.88,2.58,19.03,2.53,3.08-1.25,3.96-3.74,2.65-7.47-5.52-15.67-109.02-71.66-145.59,29.14-10.06,28.23-10.18,56.28-.37,84.13,10.13,28.73,27.42,49.85,51.89,63.39,27.21,14.98,56.44,16.14,87.69,3.48,3.78-1.53,6.05-1.24,6.79.87l30.66,15.37c.92,2.61-23.68,10.58-27.46,12.11-97.87,35.81-170.75-37.78-182.35-81.94-52.96-229.78,141.59-203.28,179.21-181.09,23.04,29.49,55.66,104.07,55.35,126.36ZM198.43,1292.85c-2.66-9.41-37.26-27.62-47.62-23.43-10.79,4.37-18.57,11.25-23.34,20.65-4.78,9.39-5.47,18.88-2.1,28.45,3.24,9.2,8.48,16.11,15.71,20.7,8.32,5.45,17.3,5.92,27.2,2.21,20.43-16.88,33.37-37.27,30.16-48.58Z"/>
  <path class="cls-1" d="M426.31,1493.63c-23.91,4.02-45.09,2.52-63.54-4.49-18.45-7-33.67-18.85-45.65-35.5-11.99-16.66-20.06-37.39-24.23-62.22l-38.38-188.58,76.49,14.49,35.8,149.99c3.87,23,12.26,39.56,25.16,49.68,12.91,10.13,29.35,13.5,49.32,10.14,14.82-2.49,26.94-7.72,36.34-15.68,9.4-7.96,15.98-18.33,19.74-31.1,3.76-12.77,4.33-27.02,1.68-42.76l26.73,9.04c1.45,27.15-1.83,51.12-9.85,71.91-8.02,20.8-19.74,37.63-35.16,50.49-15.42,12.86-33.57,21.05-54.45,24.57ZM548.18,1471.35l-43.22-95.48-42.72-162.04,77.03-5,43.41,165.63,40.73,83.99-75.23,12.9Z"/>
  <path class="cls-1" d="M855.39,1333.07c-.95,20.66-6.43,37.95-16.4,51.91-9.98,13.96-24.31,23.81-42.97,29.57-18.67,5.76-41.22,7.31-67.65,4.63-27.22-2.76-50.7-9.47-70.44-20.15-19.75-10.67-34.88-24.53-45.4-41.58-10.52-17.05-15.68-36.11-15.49-57.18l66.72,6.76c1.13,9.64,4.68,18.25,10.64,25.82,5.96,7.58,13.89,13.74,23.79,18.48,9.9,4.75,67.63,9.75,77.44,5.29,9.8-4.45,14.95-12.09,15.46-22.92.36-7.79-2.7-14.05-9.19-18.79-6.48-4.74-18.58-9.02-36.28-12.86l-41.42-8.28c-24.74-5.22-44.24-12.64-58.51-22.25-14.28-9.61-24.21-20.9-29.78-33.88-5.58-12.98-8.02-26.91-7.33-41.81.96-20.64,6.72-37.4,17.31-50.28,10.58-12.87,34.72-30.82,52.97-36.12,18.25-5.29,39.15-6.75,62.7-4.36,24.07,2.44,44.53,11.33,63.78,19.22,31.6,12.94,72.12,41.2,72.12,41.2l-49.95,45.49c-34.06-46.66-105.98-60.73-139.91-35.97,0,0-13.91,10.92-14.37,20.74-.31,6.77,2.18,12.55,7.48,17.34,5.3,4.79,84.11,23.06,84.11,23.06,23.95,5.15,42.68,12.23,56.2,21.25,13.51,9.02,22.8,19.91,27.87,32.67,5.06,12.75,7.22,27.09,6.49,43Z"/>
  <path class="cls-1" d="M1105.21,1326.48c-.38,27.7-4.7,52.51-12.95,74.41-8.26,21.91-20.03,39.64-35.33,53.17-15.3,13.53-33.41,21.79-54.32,24.76-21.7,3.08-41.71.16-60.02-8.77-18.32-8.92-33.55-22.89-45.68-41.9-12.14-19.01-20.08-41.92-23.85-68.73-3.81-27.11-2.5-51.49,3.93-73.13,6.42-21.65,17.21-39.31,32.36-52.98,15.14-13.67,33.56-22.04,55.26-25.12,20.91-2.97,40.58-.07,59.01,8.67,18.43,8.75,34.69,22.5,48.79,41.24,14.09,18.73,25.03,41.53,32.79,68.38ZM939.33,1350.01c2.12,15.06,6.65,27.94,13.62,38.61,6.96,10.69,15.61,18.6,25.93,23.74,10.32,5.15,21.62,6.84,33.91,5.1,12.29-1.75,23.4-6.62,33.34-14.64,9.94-8.01,18.29-18.33,25.05-30.97,6.75-12.63,11.43-26.81,14.02-42.54-6.82-14.39-15.23-26.79-25.22-37.2-10-10.4-20.88-18.08-32.63-23.02-11.76-4.93-23.78-6.54-36.07-4.79-12.29,1.75-22.68,6.53-31.18,14.33-8.5,7.82-14.62,17.9-18.35,30.25-3.73,12.36-4.54,26.07-2.43,41.13ZM1107.92,1465.22l-24.55-100.62,5.77-35.84-15.34-32.38-3.9-96.22,67.83-9.62,5.14,130.6,46.04,132.9-80.98,11.19Z"/>
  <path class="cls-1" d="M1285.58,1332.57c-20.03,1.53-38.32-2.1-54.84-10.89-16.53-8.8-29.98-21.95-40.35-39.45-10.36-17.5-20.65-50.17-22.3-74.44-1.65-24.27,1.47-45.77,9.37-64.52,7.9-18.74,19.43-33.81,34.58-45.19,15.15-11.37,26.58-12.89,46.65-12.34,36.7,1.01,39.69,5.34,52.62,9.99,12.94,4.66,24.72,11.14,35.36,19.48,10.63,8.33,19.74,17.63,27.32,27.87,7.58,10.25,13.57,20.61,17.98,31.1,4.41,10.49,6.92,20.13,7.51,28.93.77,11.22-1.23,24.04-5.99,38.42-4.75,14.39-12.04,28.22-21.84,41.47-9.8,13.25-21.92,24.47-36.32,33.65-14.42,9.18-31,14.49-49.77,15.93ZM1381.34,1284.53l-3.07-45.04,1.63-9.73-3.84-56.42-2.94-9.38,2.55-75.88,65.13-14.71,3.71,201.3c2.23,32.76-1.92,60.83-12.44,84.2-10.52,23.37-26.03,41.63-46.55,54.79-20.52,13.16-44.85,20.81-72.99,22.97-19.78,1.51-38.18-.13-55.2-4.92-17.03-4.8-33.94-12.8-50.77-24.02l-21.41-71.51c16.44,13.08,50.64,33.9,67.92,38.68,17.27,4.78,34.53,6.51,51.78,5.19,26.63-2.04,46.53-11.04,59.72-26.99,13.19-15.95,18.77-38.79,16.75-68.52ZM1302.85,1277.28c16.48-1.26,31.02-7.78,43.6-19.58,12.58-11.79,23.14-29.74,31.7-53.88-11.75-22.88-24.72-39.19-38.89-48.93-14.17-9.74-29.38-13.99-45.6-12.75-12.93.99-23.84,4.65-32.7,10.97-8.88,6.32-15.44,14.75-19.69,25.29-4.25,10.54-5.92,22.63-4.98,36.29.9,13.35,4.11,24.92,9.62,34.71,5.51,9.8,13.14,17.14,22.91,22.03,9.76,4.9,21.11,6.84,34.04,5.86Z"/>
  <path class="cls-1" d="M1510.94,1235.61c-12.46,1.25-22.94-.9-31.47-6.45-8.52-5.55-13.31-13.58-14.36-24.1-1.08-10.78,2.01-19.74,9.26-26.87,7.26-7.12,17.11-11.31,29.56-12.56,12.73-1.27,23.29.88,31.68,6.44,8.38,5.56,13.12,13.74,14.2,24.53,1.05,10.52-1.99,19.34-9.1,26.44-7.12,7.12-17.05,11.31-29.78,12.58ZM1478.87,1262.92l35.11,3.03,34.23-9.96,23.28,232.62-69.35,6.94-23.28-232.62Z"/>
  <path class="cls-1" d="M1622.55,1183.16l30.94,8.41,32.21-3.77-16.13,219.65-63.15-4.64,16.13-219.65ZM1655.59,1162.93c-11.34-.84-20.39-4.51-27.13-11.02-6.75-6.51-9.75-14.73-9.02-24.66.75-10.19,4.93-18.01,12.56-23.46,7.62-5.46,17.1-7.77,28.45-6.94,11.59.85,20.7,4.53,27.32,11.03,6.62,6.51,9.55,14.85,8.8,25.03-.73,9.93-4.85,17.63-12.34,23.1-7.5,5.47-17.05,7.77-28.64,6.92Z"/>
  <path class="cls-1" d="M1676.94,1433.98l243.63,3.22-.45,33.69-243.63-3.21.45-33.69Z"/>
  <path class="cls-1" d="M1775.85,1419.09l111.15-116.12-3.69,26.98-81.7-146.72,72.86,8.91,57.94,101.78-22.6-2.77,81.15-84.76,71.69,8.77-117.93,123.62,1.04-34.38,113.44,174.24-79.79,2.54-78.6-135.82,23.77,2.9-70.59,73.75-78.13-2.93Z"/>
</svg>